<svg width="1600" height="1200" viewBox="0 0 1600 1200" fill="none" xmlns="http://www.w3.org/2000/svg">
<path fill-rule="evenodd" clip-rule="evenodd" d="M1449.1 324.017C1560.38 516.774 1494.34 763.251 1301.58 874.539C1149.61 962.281 964.244 939.793 838.067 831.881C787.691 788.798 715.402 768.855 657.996 801.998C601.999 834.329 584.319 905.897 580.78 970.461C576.667 1045.51 535.929 1117.06 465.981 1157.45C355.872 1221.02 215.077 1183.29 151.505 1073.18C87.9341 963.073 125.66 822.278 235.769 758.706C286.663 729.323 344.113 721.581 397.463 732.625C465.724 746.756 541.225 759.996 601.594 725.142C669.815 685.755 696.637 602.787 697.006 524.014C697.654 385.396 769.867 250.814 898.574 176.505C1091.33 65.2168 1337.81 131.26 1449.1 324.017Z" fill="url(#paint0_linear)"/>
<defs>
<linearGradient id="paint0_linear" x1="598.795" y1="349.582" x2="1001.81" y2="1047.62" gradientUnits="userSpaceOnUse">
<stop stop-color="#7F7FD5"/>
<stop offset="1" stop-color="#E786D7"/>
</linearGradient>
</defs>
</svg>
